HIERARCHY
ROOT Hips
{
	OFFSET -0.001795 -0.223333 0.028219
	CHANNELS 6 Xposition Yposition Zposition Zrotation Yrotation Xrotation 
	JOINT LeftUpLeg
	{
		OFFSET 0.069520 -0.091406 -0.006815
		CHANNELS 3 Zrotation Yrotation Xrotation
		JOINT LeftLeg
		{
			OFFSET 0.034277 -0.375199 -0.004496
			CHANNELS 3 Zrotation Yrotation Xrotation
			JOINT LeftFoot
			{
				OFFSET -0.013596 -0.397961 -0.043693
				CHANNELS 3 Zrotation Yrotation Xrotation
				JOINT LeftToe
				{
					OFFSET 0.026358 -0.055791 0.119288
					CHANNELS 3 Zrotation Yrotation Xrotation
					End Site
					{
						OFFSET 0.000000 0.000000 0.000000
					}
				}
			}
		}
	}
	JOINT RightUpLeg
	{
		OFFSET -0.067670 -0.090522 -0.004320
		CHANNELS 3 Zrotation Yrotation Xrotation
		JOINT RightLeg
		{
			OFFSET -0.038290 -0.382569 -0.008850
			CHANNELS 3 Zrotation Yrotation Xrotation
			JOINT RightFoot
			{
				OFFSET 0.015774 -0.398415 -0.042312
				CHANNELS 3 Zrotation Yrotation Xrotation
				JOINT RightToe
				{
					OFFSET -0.025372 -0.048144 0.123348
					CHANNELS 3 Zrotation Yrotation Xrotation
					End Site
					{
						OFFSET 0.000000 0.000000 0.000000
					}
				}
			}
		}
	}
	JOINT Spine
	{
		OFFSET -0.002533 0.108963 -0.026696
		CHANNELS 3 Zrotation Yrotation Xrotation
		JOINT Spine1
		{
			OFFSET 0.005487 0.135180 0.001092
			CHANNELS 3 Zrotation Yrotation Xrotation
			JOINT Spine2
			{
				OFFSET 0.001457 0.052922 0.025425
				CHANNELS 3 Zrotation Yrotation Xrotation
				JOINT Neck
				{
					OFFSET -0.002778 0.213870 -0.042857
					CHANNELS 3 Zrotation Yrotation Xrotation
					JOINT Head
					{
						OFFSET 0.005152 0.064970 0.051349
						CHANNELS 3 Zrotation Yrotation Xrotation
						End Site
						{
							OFFSET 0.000000 0.000000 0.000000
						}
					}
				}
				JOINT LeftShoulder
				{
					OFFSET 0.078845 0.121749 -0.034090
					CHANNELS 3 Zrotation Yrotation Xrotation
					JOINT LeftArm
					{
						OFFSET 0.090977 0.030469 -0.008868
						CHANNELS 3 Zrotation Yrotation Xrotation
						JOINT LeftForeArm
						{
							OFFSET 0.259612 -0.012772 -0.027456
							CHANNELS 3 Zrotation Yrotation Xrotation
							JOINT LeftHand
							{
								OFFSET 0.249234 0.008986 -0.001171
								CHANNELS 3 Zrotation Yrotation Xrotation
								End Site
								{
									OFFSET 0.000000 0.000000 0.000000
								}
							}
						}
					}
				}
				JOINT RightShoulder
				{
					OFFSET -0.081759 0.118833 -0.038615
					CHANNELS 3 Zrotation Yrotation Xrotation
					JOINT RightArm
					{
						OFFSET -0.096012 0.032551 -0.009143
						CHANNELS 3 Zrotation Yrotation Xrotation
						JOINT RightForeArm
						{
							OFFSET -0.253742 -0.013329 -0.021401
							CHANNELS 3 Zrotation Yrotation Xrotation
							JOINT RightHand
							{
								OFFSET -0.255298 0.007772 -0.005559
								CHANNELS 3 Zrotation Yrotation Xrotation
								End Site
								{
									OFFSET 0.000000 0.000000 0.000000
								}
							}
						}
					}
				}
			}
		}
	}
}
MOTION
Frames: 8
Frame Time: 0.050000
0.059358 0.522047 0.032839 5.406057 -0.633089 56.286611 9.552349 -1.031436 31.534638 -16.776940 -6.110795 -77.936140 45.326228 25.606009 109.122109 0.000000 0.000000 0.000000 -19.358226 4.488230 30.978950 27.194326 6.259664 -59.180573 -48.041967 -30.599804 104.702727 0.000000 0.000000 0.000000 -2.124490 0.769148 -19.330200 19.715928 8.368685 -90.672884 7.823974 12.213315 89.692579 14.180074 0.002776 -121.065716 0.000000 0.000000 0.000000 -10.023139 27.559765 -20.976091 -30.709968 20.731378 -13.646513 64.555771 32.938559 14.001039 0.000000 0.000000 0.000000 -0.019038 -38.645948 -21.599418 45.543281 -20.954111 -15.934018 -75.807876 -41.634206 51.109389 0.000000 0.000000 0.000000 
0.060910 0.521971 0.033364 5.135647 -0.752017 56.305037 9.521889 -0.987875 31.469192 -16.886219 -6.098496 -78.302734 46.138521 25.403651 110.318869 0.000000 0.000000 0.000000 -19.734306 4.685913 30.671668 27.537452 6.482525 -59.605651 -50.121529 -30.892188 105.432185 0.000000 0.000000 0.000000 -1.835919 0.777655 -19.588280 19.129987 8.160255 -89.707626 8.352850 12.210576 89.105762 11.683135 -0.629988 -120.083532 0.000000 0.000000 0.000000 -9.667722 27.474393 -20.759235 -30.890660 19.481210 -13.354445 64.520770 34.838919 15.142783 0.000000 0.000000 0.000000 0.547420 -38.877891 -21.760045 46.133834 -21.424410 -16.158117 -76.826921 -44.067623 54.146219 0.000000 0.000000 0.000000 
0.062165 0.521804 0.033983 4.892818 -0.910118 56.050729 9.511129 -0.934510 31.766590 -17.061439 -6.166937 -78.748015 47.457664 25.448943 110.839523 0.000000 0.000000 0.000000 -19.998800 4.842447 30.878490 27.771744 6.705330 -60.015214 -50.593948 -30.933749 105.566345 0.000000 0.000000 0.000000 -2.121032 0.807135 -19.535608 19.890881 8.305971 -88.724408 8.003455 12.549047 88.232025 11.107065 -0.789896 -119.332203 0.000000 0.000000 0.000000 -9.796036 27.748209 -20.959516 -30.532362 19.002884 -12.908758 64.485614 36.165415 15.869016 0.000000 0.000000 0.000000 -0.225148 -38.879808 -21.550075 46.284631 -22.181974 -16.030408 -78.273122 -46.142165 56.926796 0.000000 0.000000 0.000000 
0.063495 0.521112 0.034627 4.711651 -0.931231 55.854621 9.606018 -0.952424 32.123528 -17.335263 -6.372514 -79.468250 48.716614 25.509121 111.232889 0.000000 0.000000 0.000000 -20.152894 4.943497 31.270160 28.042300 6.961769 -60.773823 -51.556968 -31.159185 105.535531 0.000000 0.000000 0.000000 -1.942171 0.806492 -19.736450 19.684765 8.177151 -88.145156 8.044054 12.516571 88.078578 10.485028 -0.967084 -119.037043 0.000000 0.000000 0.000000 -9.368646 28.006210 -20.949428 -30.749606 18.696893 -12.885154 64.640075 37.306053 16.663396 0.000000 0.000000 0.000000 -0.377826 -39.089429 -21.623179 46.628396 -22.453797 -16.107553 -79.844295 -47.897516 59.936820 0.000000 0.000000 0.000000 
0.065028 0.520012 0.035452 4.492914 -1.137081 55.744757 9.329651 -0.764566 32.817368 -17.126369 -6.317481 -80.636572 48.903206 25.159786 112.438497 0.000000 0.000000 0.000000 -20.515564 5.168209 31.780265 28.082252 7.145644 -61.489124 -50.905062 -31.060321 105.257576 0.000000 0.000000 0.000000 -1.349301 0.796378 -19.735993 19.709763 8.282511 -87.600545 8.091974 13.307550 88.059488 11.900364 -0.915672 -118.776646 0.000000 0.000000 0.000000 -8.668164 28.504697 -21.147647 -30.814440 18.249684 -12.685239 65.053491 38.983024 17.690953 0.000000 0.000000 0.000000 -0.280299 -39.723581 -21.940578 46.061883 -22.876176 -15.825181 -79.627543 -48.903328 60.583364 0.000000 0.000000 0.000000 
0.066695 0.518296 0.036271 4.389793 -1.062825 55.400974 9.240307 -0.695373 33.758991 -17.091005 -6.504472 -81.859429 49.919884 25.239338 112.566132 0.000000 0.000000 0.000000 -20.822320 5.332228 32.869932 28.689774 7.560393 -62.485624 -51.319427 -31.337379 104.690977 0.000000 0.000000 0.000000 -0.604700 0.764959 -19.942386 19.466947 8.089918 -86.573620 8.036926 13.772782 87.981739 13.296090 -0.726989 -119.079833 0.000000 0.000000 0.000000 -8.820631 28.702173 -21.480796 -31.349007 17.915341 -12.805536 67.130575 40.401781 19.457331 0.000000 0.000000 0.000000 -0.045805 -40.099966 -22.193386 45.438786 -23.595194 -15.777259 -78.372262 -49.522468 59.816899 0.000000 0.000000 0.000000 
0.068307 0.516810 0.036897 4.787209 -0.764728 55.183504 9.274469 -0.762597 34.510810 -17.246938 -6.964873 -82.711403 49.881313 25.206861 112.543536 0.000000 0.000000 0.000000 -21.036958 5.355620 33.782119 28.967994 7.647046 -63.101975 -50.800831 -31.330970 104.354669 0.000000 0.000000 0.000000 0.004244 0.691724 -19.643016 18.993893 7.934938 -87.263206 7.922043 13.920120 88.887533 15.859582 -0.241425 -119.590671 0.000000 0.000000 0.000000 -8.869849 28.718004 -21.668276 -31.964814 17.497991 -13.055161 68.822429 42.129774 21.376872 0.000000 0.000000 0.000000 0.147686 -40.502609 -22.558010 44.435239 -23.998319 -15.672643 -76.852231 -49.855032 58.505648 0.000000 0.000000 0.000000 
0.069753 0.515858 0.037035 5.293936 -0.146312 55.059513 9.535609 -1.022710 34.648617 -17.101944 -7.300275 -83.352700 51.299124 25.373272 112.541620 0.000000 0.000000 0.000000 -20.962872 5.148662 34.402197 29.762316 7.897983 -63.817101 -53.083812 -32.072583 104.093447 0.000000 0.000000 0.000000 0.520197 0.611972 -19.757114 18.404837 7.544666 -88.109273 7.515138 13.576903 90.142572 19.029629 0.565720 -120.219915 0.000000 0.000000 0.000000 -9.287855 28.962644 -22.175085 -33.208212 17.094362 -13.706156 72.333895 43.590184 24.441501 0.000000 0.000000 0.000000 0.290043 -40.568801 -22.786296 43.336509 -24.912856 -15.823160 -74.233731 -49.393657 55.209236 0.000000 0.000000 0.000000 
